<svg xmlns="http://www.w3.org/2000/svg" viewBox="0 0 512 512">
  <path fill="#000000" d="M50 227L51 228L51 231L52 232L54 240L63 256L76 270L90 280L93 281L97 285L98 293L99 294L103 295L106 297L111 298L115 302L115 305L119 307L127 309L134 298L142 289L144 289L148 287L151 287L152 286L153 287L155 287L159 291L159 296L160 297L162 311L171 317L180 325L183 325L188 327L192 330L198 337L207 336L212 332L216 331L217 332L219 332L231 343L240 343L241 344L245 344L255 348L269 345L268 341L266 338L259 315L257 312L257 307L263 301L269 300L276 303L279 303L284 305L288 305L289 306L295 306L296 307L325 307L326 306L327 307L329 307L333 311L333 318L329 322L321 324L321 329L316 337L319 343L324 343L325 342L330 342L331 341L335 341L336 340L341 340L342 339L351 338L352 337L352 331L353 329L359 323L362 322L366 319L368 319L371 317L375 316L375 315L369 309L369 305L373 301L377 300L383 303L400 308L411 313L431 328L448 343L458 343L460 340L460 337L461 336L461 326L460 325L460 318L459 317L459 313L458 312L457 306L446 302L441 304L435 302L425 292L423 287L420 284L420 280L425 275L413 264L410 258L408 256L404 248L404 246L401 241L401 239L398 234L398 232L394 225L394 223L391 217L389 215L387 210L382 203L371 192L365 188L357 184L355 184L348 181L344 181L343 180L336 179L332 175L331 171L329 172L275 171L274 172L262 173L261 174L258 174L253 176L252 175L250 175L246 171L246 170L241 170L240 171L236 171L231 173L226 173L220 170L215 169L212 167L209 167L205 165L190 162L182 175L176 181L174 181L173 182L171 182L170 181L148 181L147 182L139 182L138 183L135 183L130 181L126 177L125 170L122 163L119 169L116 180L112 184L110 184L109 185L107 185L106 184L106 195L110 205L111 206L114 206L115 205L119 206L123 210L123 216L124 217L124 221L125 222L126 234L118 243L114 244L99 238L100 251L96 255L92 256L86 253L84 253L70 245L62 239Z"/>
</svg>
